<svg version="1.1" id="Layer_1" xmlns="http://www.w3.org/2000/svg" xmlns:xlink="http://www.w3.org/1999/xlink" x="0px" y="0px"
	 width="100%" viewBox="0 0 50 50" enable-background="new 0 0 50 50" xml:space="preserve">
<path fill="#FFFFFF" opacity="1.000000" stroke="none" 
	d="
M31.000957,51.000000 
	C20.667440,51.000000 10.834126,51.000000 1.000609,51.000000 
	C1.000406,34.333637 1.000406,17.667271 1.000203,1.000680 
	C17.666332,1.000453 34.332664,1.000453 50.999245,1.000227 
	C50.999496,17.666300 50.999496,34.332600 50.999748,50.999451 
	C44.500389,51.000000 38.000774,51.000000 31.000957,51.000000 
M21.834782,35.698780 
	C20.104103,38.588276 20.677912,41.223972 23.569756,42.582020 
	C24.332396,42.940166 26.967064,40.988708 27.514051,39.610443 
	C27.969618,38.462536 26.625982,36.600582 26.932148,34.996021 
	C28.926014,35.016479 30.919880,35.036938 32.726257,35.746384 
	C32.532967,37.707779 32.339676,39.669178 32.146385,41.630573 
	C33.549126,41.726742 35.997364,42.257965 36.170296,41.842384 
	C36.852242,40.203556 36.857590,38.270870 37.025429,36.439098 
	C37.067295,35.982201 36.778137,35.494980 37.198254,34.358051 
	C44.924347,33.475273 44.919609,33.474087 47.063461,24.904217 
	C47.533073,23.026972 48.049721,21.161495 48.622318,18.997267 
	C42.118916,18.997267 35.812340,18.745584 29.538214,19.088177 
	C25.538561,19.306576 22.895285,18.432257 22.620949,14.396538 
	C20.190186,14.396538 18.174675,14.396538 16.159163,14.396538 
	C16.062944,14.751398 15.966724,15.106259 15.870504,15.461120 
	C17.560143,16.270987 19.249783,17.080854 20.401112,17.632702 
	C21.021729,23.661083 21.605770,29.334200 21.834782,35.698780 
z"/>
<path fill="#FF9E02" opacity="1.000000" stroke="none" 
	d="
M32.913746,35.057396 
	C30.919880,35.036938 28.926014,35.016479 26.117559,35.007919 
	C24.265251,35.015652 23.227531,35.011486 22.189812,35.007317 
	C21.605770,29.334200 21.021729,23.661083 20.401112,17.632702 
	C19.249783,17.080854 17.560143,16.270987 15.870504,15.461120 
	C15.966724,15.106259 16.062944,14.751398 16.159163,14.396538 
	C18.174675,14.396538 20.190186,14.396538 22.620949,14.396538 
	C22.895285,18.432257 25.538561,19.306576 29.538214,19.088177 
	C35.812340,18.745584 42.118916,18.997267 48.622318,18.997267 
	C48.049721,21.161495 47.533073,23.026972 47.063461,24.904217 
	C44.919609,33.474087 44.924347,33.475273 36.547005,34.686260 
	C34.901752,35.028778 33.907749,35.043087 32.913746,35.057396 
z"/>
<path fill="#FF7414" opacity="1.000000" stroke="none" 
	d="
M22.012297,35.353050 
	C23.227531,35.011486 24.265251,35.015652 25.691109,35.037354 
	C26.625982,36.600582 27.969618,38.462536 27.514051,39.610443 
	C26.967064,40.988708 24.332396,42.940166 23.569756,42.582020 
	C20.677912,41.223972 20.104103,38.588276 22.012297,35.353050 
z"/>
<path fill="#FF7413" opacity="1.000000" stroke="none" 
	d="
M32.820000,35.401890 
	C33.907749,35.043087 34.901752,35.028778 36.268440,35.018082 
	C36.778137,35.494980 37.067295,35.982201 37.025429,36.439098 
	C36.857590,38.270870 36.852242,40.203556 36.170296,41.842384 
	C35.997364,42.257965 33.549126,41.726742 32.146385,41.630573 
	C32.339676,39.669178 32.532967,37.707779 32.820000,35.401890 
z"/>
</svg>